<svg xmlns="http://www.w3.org/2000/svg" width="1600" height="900" viewBox="0 0 1600 900" role="img" aria-label="Industrial engineering">
  <defs>
    <linearGradient id="bg" x1="0" y1="0" x2="1" y2="1">
      <stop offset="0%" stop-color="#0f172a"/>
      <stop offset="100%" stop-color="#1e3a8a"/>
    </linearGradient>
  </defs>
  <rect width="1600" height="900" fill="url(#bg)"/>
  <g opacity="0.2" stroke="#93c5fd" stroke-width="2">
    <path d="M0 140 H1600"/><path d="M0 280 H1600"/><path d="M0 420 H1600"/><path d="M0 560 H1600"/><path d="M0 700 H1600"/>
    <path d="M220 0 V900"/><path d="M440 0 V900"/><path d="M660 0 V900"/><path d="M880 0 V900"/><path d="M1100 0 V900"/><path d="M1320 0 V900"/>
  </g>
  <rect x="180" y="220" width="1240" height="460" rx="24" fill="#0b1220" stroke="#334155"/>
  <circle cx="360" cy="450" r="95" fill="#1d4ed8" opacity="0.9"/>
  <circle cx="640" cy="450" r="95" fill="#2563eb" opacity="0.9"/>
  <circle cx="920" cy="450" r="95" fill="#3b82f6" opacity="0.9"/>
  <circle cx="1200" cy="450" r="95" fill="#60a5fa" opacity="0.9"/>
  <text x="180" y="160" font-size="58" fill="#dbeafe" font-family="Arial, sans-serif" font-weight="700">DFX Engineering Solutions</text>
</svg>
